<svg viewBox="0 0 66 66" fill="none" xmlns="http://www.w3.org/2000/svg"><path d="M60.4 8.533a8.777 8.777 0 00-2.533-.866c-.534 0-34.6-6.534-36.4-6.667-.867-.067-1.8 0-2.667.133C3 3.467-1 22.733 12.067 30.8c3.066 1.867 6.733 2.533 10.266 1.733 6.2-1.333 34.067-8.2 35.867-8.6 7.733-1.666 9.4-11.6 2.2-15.4z" fill="url(#paint0_linear)"/><path d="M60.733 38.2C59.4 36.667 35.267 9.267 30.133 4.8c-1-.867-2.2-1.667-3.533-2.4a12.683 12.683 0 00-7.8-1.333C4.533 3.267-.133 19.2 8.733 28.2c.934 1 27.467 30.467 27.734 30.8 1.2 1.467 2.666 2.867 4.533 4 3.067 1.933 6.8 2.533 10.4 1.733C64.467 61.8 68.667 47.067 60.733 38.2z" fill="url(#paint1_linear)"/><path d="M55.667 34.333C55.133 34.067 54.6 33.8 54 33.6c-.467-.133-36.333-11.467-37.133-11.667a10.474 10.474 0 00-4.067-.2C0 23.6-3.267 39.267 7.333 45.867 9.8 47.4 42.533 63.8 43.4 64.133a13.983 13.983 0 007.933.534c15.334-3.334 18.467-22.934 4.334-30.334z" fill="url(#paint2_linear)"/><path d="M60.4 8.533c-1.2-.666-2.6-.866-4-.666-.733.133-1.4.266-2.067.533C51.2 9.667 10.133 22.267 9 22.8-.533 26.933-2.067 40 7.333 45.867a11.18 11.18 0 008.4 1.4c1.134-.267 2.267-.6 3.2-1.067C24 43.8 60.067 23.4 60.8 23c5.4-3.133 5.867-11.133-.4-14.467z" fill="url(#paint3_linear)"/><path d="M52 14H14v38h38V14z" fill="url(#paint4_linear)"/><path d="M33.144 45H19v2.322h14.144V45zM34 18.64h3.128v11.512h6.194v2.628H34V18.64zm-15 0h5.506c4.442 0 7.508 3.066 7.508 7.007v.063c0 4.004-3.066 7.07-7.508 7.07H19V18.64zm3.128 2.816v8.509h2.378c2.565 0 4.254-1.69 4.254-4.192v-.063c0-2.503-1.689-4.255-4.254-4.255h-2.378z" fill="#fff"/><defs><linearGradient id="paint0_linear" x1="20.566" y1="16.836" x2="59.406" y2="24.577" gradientUnits="userSpaceOnUse"><stop offset=".242" stop-color="#3BEA62"/><stop offset=".857" stop-color="#FCF84A"/></linearGradient><linearGradient id="paint1_linear" x1="16.407" y1="5.429" x2="53.7" y2="62.15" gradientUnits="userSpaceOnUse"><stop offset=".018" stop-color="#3BEA62"/><stop offset=".786" stop-color="#087CFA"/></linearGradient><linearGradient id="paint2_linear" x1="15.889" y1="36.989" x2="63.122" y2="54.049" gradientUnits="userSpaceOnUse"><stop offset=".121" stop-color="#1FAEB5"/><stop offset=".975" stop-color="#087CFA"/></linearGradient><linearGradient id="paint3_linear" x1="2.301" y1="39.648" x2="63.311" y2="12.608" gradientUnits="userSpaceOnUse"><stop offset=".121" stop-color="#1FAEB5"/><stop offset=".856" stop-color="#FCF84A"/></linearGradient><linearGradient id="paint4_linear" x1="32.949" y1="4.764" x2="32.949" y2="38.843" gradientUnits="userSpaceOnUse"><stop offset=".084" stop-color="#878585"/><stop offset=".538"/></linearGradient></defs></svg>