<?xml version="1.0" ?><!DOCTYPE svg  PUBLIC '-//W3C//DTD SVG 1.1//EN'  'http://www.w3.org/Graphics/SVG/1.1/DTD/svg11.dtd'><svg height="512px" style="enable-background:new 0 0 512 512;" version="1.1" viewBox="0 0 512 512" width="512px" xml:space="preserve" xmlns="http://www.w3.org/2000/svg" xmlns:xlink="http://www.w3.org/1999/xlink"><g id="comp_x5F_189-kaggle"><g><g><g><path d="M385.708,472.847L254.742,310.082l125.578-121.534c2.334-2.426,1.526-9.433-4.761-9.433h-62.16      c-3.145,0-6.288,1.618-9.433,4.761L185.128,303.973V36.369c0-4.491-2.247-6.737-6.738-6.737h-46.618      c-4.492,0-6.737,2.246-6.737,6.737V475.54c0,4.491,2.246,6.738,6.737,6.738h46.618c4.491,0,6.738-2.247,6.738-6.738v-97.91      l27.666-26.317l99.257,126.294c2.695,3.145,5.839,4.762,9.432,4.762h60.095c3.143,0,4.939-0.899,5.389-2.696L385.708,472.847z" style="fill:#20BEFF;"/><path d="M381.577,492.368h-60.095c-4.539,0-11.177-1.432-17.024-8.254      c-0.092-0.107-0.182-0.217-0.27-0.328l-92.466-117.653l-16.595,15.786v93.621c0,10.012-6.727,16.738-16.738,16.738h-46.618      c-10.011,0-16.737-6.727-16.737-16.738V36.369c0-10.011,6.726-16.737,16.737-16.737h46.618c10.012,0,16.738,6.726,16.738,16.737      v243.28l101.729-102.807c5.143-5.14,10.694-7.727,16.541-7.727h62.16c6.554,0,12.166,3.622,14.647,9.453      c2.493,5.858,1.416,12.656-2.681,16.914c-0.082,0.085-0.166,0.169-0.252,0.252L268.253,310.922l125.246,155.656      c1.04,1.293,1.742,2.824,2.043,4.456l1.258,6.825c0.26,1.406,0.214,2.852-0.133,4.238      C396.064,484.507,393.196,492.368,381.577,492.368z M319.76,471.231c1.01,1.137,1.506,1.137,1.723,1.137h51.005L246.951,316.351      c-3.24-4.026-2.878-9.859,0.836-13.454l117.566-113.781h-51.872c-0.278,0.084-1.15,0.538-2.446,1.833L192.236,311.007      c-2.852,2.881-7.162,3.757-10.911,2.215c-3.75-1.542-6.197-5.194-6.197-9.249V39.632h-40.094v432.646h40.094V377.63      c0-2.739,1.124-5.357,3.108-7.245l27.666-26.317c2.04-1.941,4.796-2.937,7.613-2.729c2.809,0.202,5.401,1.58,7.142,3.794      L319.76,471.231z" style="fill:#188FBF;"/></g></g></g></g><g id="Layer_1"/></svg>